<svg xmlns="http://www.w3.org/2000/svg" xmlns:xlink="http://www.w3.org/1999/xlink" viewBox="0 0 241.04 158.49"><defs><style>.cls-1,.cls-4{fill:none;}.cls-2{isolation:isolate;}.cls-3{fill:#fff;}.cls-4{stroke:#e6e7e8;stroke-miterlimit:10;stroke-width:0.47px;}.cls-13,.cls-21,.cls-5,.cls-6{opacity:0.1;}.cls-5{fill:url(#linear-gradient);}.cls-7{fill:#ff9a4e;}.cls-8{font-size:10px;fill:#6d6e71;font-family:Glober;}.cls-9{fill:#f1f2f2;}.cls-10{clip-path:url(#clip-path);}.cls-11{fill:#ffc89e;}.cls-12{fill:#fcb48b;}.cls-13{fill:#f7aa84;}.cls-13,.cls-21{mix-blend-mode:multiply;}.cls-14{fill:url(#linear-gradient-2);}.cls-15{fill:url(#linear-gradient-3);}.cls-16{fill:#aa5d14;}.cls-17{clip-path:url(#clip-path-2);}.cls-18{fill:#a25a34;}.cls-19{fill:#f1c9a5;}.cls-20{fill:#e4b692;}.cls-21{fill:#ddac8c;}.cls-22{fill:#d1874a;}.cls-23{fill:#00e1a8;}</style><linearGradient id="linear-gradient" x1="65.25" y1="34.45" x2="241.04" y2="34.45" gradientUnits="userSpaceOnUse"><stop offset="0" stop-color="#bd82e0"/><stop offset="0.98" stop-color="#a16bb5"/></linearGradient><clipPath id="clip-path" transform="translate(-6305.28 -1935.77)"><circle class="cls-1" cx="6370.53" cy="1967.89" r="18.49"/></clipPath><linearGradient id="linear-gradient-2" x1="6365.23" y1="1979.35" x2="6373.68" y2="1979.35" gradientTransform="translate(-4.96 -2.53) rotate(0.04)" xlink:href="#linear-gradient"/><linearGradient id="linear-gradient-3" x1="6380.05" y1="1979.35" x2="6388.5" y2="1979.35" gradientTransform="translate(-4.96 -2.53) rotate(0.04)" xlink:href="#linear-gradient"/><clipPath id="clip-path-2" transform="translate(-6305.28 -1935.77)"><circle class="cls-1" cx="6491.26" cy="2056.67" r="18.67"/></clipPath></defs><title>2</title><g class="cls-2"><g id="Layer_1" data-name="Layer 1"><rect class="cls-3" y="83.55" width="186.11" height="74.94"/><path class="cls-4" d="M6463.8,2015.2" transform="translate(-6305.28 -1935.77)"/><polygon class="cls-5" points="65.25 0 241.04 0 241.04 68.91 65.25 68.91 65.25 26.07 65.25 0"/><g class="cls-6"><polygon class="cls-7" points="0 83.55 186.11 83.55 186.11 158.49 0 158.49 0 125.85 0 83.55"/></g><text class="cls-8" transform="translate(93.32 21.28)">H<tspan x="6.73" y="0">i </tspan><tspan x="11.5" y="0">J</tspan><tspan x="15.74" y="0">o</tspan><tspan x="21.26" y="0">an</tspan><tspan x="31.88" y="0">n</tspan><tspan x="37.43" y="0">a</tspan><tspan x="42.64" y="0">. </tspan><tspan x="47.19" y="0">T</tspan><tspan x="52.66" y="0">h</tspan><tspan x="58.2" y="0">an</tspan><tspan x="68.83" y="0">k</tspan><tspan x="74.08" y="0">s </tspan><tspan x="81.06" y="0">f</tspan><tspan x="84.41" y="0">o</tspan><tspan x="89.85" y="0">r </tspan><tspan x="96.28" y="0">o</tspan><tspan x="101.63" y="0">f</tspan><tspan x="105.39" y="0">f</tspan><tspan x="108.71" y="0">e</tspan><tspan x="113.82" y="0">r</tspan><tspan x="117.83" y="0">i</tspan><tspan x="120.02" y="0">ng </tspan><tspan x="0" y="15">m</tspan><tspan x="8.51" y="15">e </tspan><tspan x="16.16" y="15">y</tspan><tspan x="21.35" y="15">o</tspan><tspan x="26.79" y="15">u</tspan><tspan x="32.29" y="15">r </tspan><tspan x="38.72" y="15">s</tspan><tspan x="43.31" y="15">t</tspan><tspan x="46.78" y="15">e</tspan><tspan x="51.86" y="15">a</tspan><tspan x="56.98" y="15">m </tspan><tspan x="67.98" y="15">ir</tspan><tspan x="74.02" y="15">o</tspan><tspan x="79.45" y="15">n</tspan><tspan x="85.05" y="15">. </tspan><tspan x="89.6" y="15">W</tspan><tspan x="99.21" y="15">h</tspan><tspan x="104.75" y="15">e</tspan><tspan x="109.86" y="15">n </tspan><tspan x="117.91" y="15">c</tspan><tspan x="122.49" y="15">a</tspan><tspan x="127.62" y="15">n </tspan><tspan x="0" y="30">I </tspan><tspan x="5.03" y="30">p</tspan><tspan x="10.6" y="30">i</tspan><tspan x="12.81" y="30">c</tspan><tspan x="17.34" y="30">k </tspan><tspan x="24.85" y="30">i</tspan><tspan x="27.15" y="30">t </tspan><tspan x="33.23" y="30">u</tspan><tspan x="38.73" y="30">p</tspan><tspan x="43.95" y="30">?</tspan></text><text class="cls-8" transform="translate(18 110.32)">H<tspan x="6.73" y="0">i </tspan><tspan x="11.5" y="0">J</tspan><tspan x="15.74" y="0">o</tspan><tspan x="21.18" y="0">h</tspan><tspan x="26.69" y="0">n</tspan><tspan x="32.18" y="0">! </tspan><tspan x="37.13" y="0">Y</tspan><tspan x="42.66" y="0">o</tspan><tspan x="48.1" y="0">u </tspan><tspan x="56.15" y="0">c</tspan><tspan x="60.73" y="0">a</tspan><tspan x="65.85" y="0">n </tspan><tspan x="73.9" y="0">c</tspan><tspan x="78.29" y="0">o</tspan><tspan x="83.72" y="0">m</tspan><tspan x="92.23" y="0">e </tspan><tspan x="99.88" y="0">o</tspan><tspan x="105.25" y="0">v</tspan><tspan x="110.2" y="0">e</tspan><tspan x="115.31" y="0">r </tspan><tspan x="121.74" y="0">r</tspan><tspan x="125.75" y="0">i</tspan><tspan x="127.91" y="0">g</tspan><tspan x="133.22" y="0">h</tspan><tspan x="138.72" y="0">t </tspan><tspan x="0" y="15">a</tspan><tspan x="5.09" y="15">w</tspan><tspan x="13.12" y="15">a</tspan><tspan x="18.21" y="15">y</tspan><tspan x="23" y="15">. </tspan><tspan x="27.55" y="15">H</tspan><tspan x="34.33" y="15">e</tspan><tspan x="39.44" y="15">r</tspan><tspan x="43.26" y="15">e </tspan><tspan x="50.91" y="15">i</tspan><tspan x="53.08" y="15">s </tspan><tspan x="60.06" y="15">m</tspan><tspan x="68.51" y="15">y </tspan><tspan x="76.28" y="15">a</tspan><tspan x="81.43" y="15">d</tspan><tspan x="87.03" y="15">d</tspan><tspan x="92.59" y="15">r</tspan><tspan x="96.41" y="15">e</tspan><tspan x="101.64" y="15">s</tspan><tspan x="106.11" y="15">s</tspan><tspan x="110.71" y="15">. </tspan><tspan x="0" y="30">S</tspan><tspan x="5.76" y="30">e</tspan><tspan x="10.97" y="30">e </tspan><tspan x="18.62" y="30">y</tspan><tspan x="23.82" y="30">o</tspan><tspan x="29.26" y="30">u</tspan><tspan x="34.84" y="30">.</tspan></text><circle class="cls-3" cx="65.25" cy="32.11" r="18.49"/><path class="cls-9" d="M6370.53,1986.38a18.49,18.49,0,0,1,0-37" transform="translate(-6305.28 -1935.77)"/><path class="cls-9" d="M6491.26,2038.59a18.49,18.49,0,1,1,0,37" transform="translate(-6305.28 -1935.77)"/><g class="cls-10"><path class="cls-11" d="M6380.37,1978.77c-1.32-2.51-9.84-4.09-9.84-4.09s-8.51,1.57-9.84,4.07c-1,3.48-1.8,7.9-1.8,7.9h23.27A38.67,38.67,0,0,0,6380.37,1978.77Z" transform="translate(-6305.28 -1935.77)"/><path class="cls-12" d="M6370.54,1974.69s8.51,1.58,9.84,4.09a38.67,38.67,0,0,1,1.79,7.9h-11.64v-12Z" transform="translate(-6305.28 -1935.77)"/><rect class="cls-11" x="62.94" y="33.82" width="4.64" height="7.76"/><rect class="cls-12" x="65.26" y="33.82" width="2.32" height="7.76"/><path class="cls-13" d="M6368.22,1973.18c0.42,1.2,2.1,1.88,3.33,1.88a4.16,4.16,0,0,0,1.3-.21v-5.27h-4.64v3.59Z" transform="translate(-6305.28 -1935.77)"/><path class="cls-3" d="M6380.37,1978.77c-0.77-1.46-4-2.61-6.54-3.31a3.3,3.3,0,0,1-6.58,0c-2.55.7-5.77,1.84-6.55,3.3-1,3.48-1.8,7.9-1.8,7.9h23.27A38.67,38.67,0,0,0,6380.37,1978.77Z" transform="translate(-6305.28 -1935.77)"/><path class="cls-11" d="M6376.5,1964.7c0-4.85-2.66-7.6-6-7.61s-6,2.75-6,7.6c0,2,.62,6.53,1.68,7.44a9.43,9.43,0,0,0,4.27,1.76h0a9.43,9.43,0,0,0,4.27-1.75C6375.92,1971,6376.5,1966.56,6376.5,1964.7Z" transform="translate(-6305.28 -1935.77)"/><path class="cls-12" d="M6370.54,1973.89h0a9.43,9.43,0,0,0,4.27-1.75c1.1-1.16,1.68-5.58,1.69-7.44,0-4.85-2.66-7.6-6-7.61v16.8h0Z" transform="translate(-6305.28 -1935.77)"/><path class="cls-12" d="M6375.6,1968.06a2.14,2.14,0,0,1-1.63-2.6,2.32,2.32,0,0,1,2.29-2.19,2.14,2.14,0,0,1,1.62,2.6A2.32,2.32,0,0,1,6375.6,1968.06Z" transform="translate(-6305.28 -1935.77)"/><path class="cls-11" d="M6363.25,1965.86a2.14,2.14,0,0,1,1.63-2.6,2.32,2.32,0,0,1,2.28,2.19,2.14,2.14,0,0,1-1.63,2.6A2.32,2.32,0,0,1,6363.25,1965.86Z" transform="translate(-6305.28 -1935.77)"/><path class="cls-14" d="M6360.7,1978.76c-1,3.48-1.8,7.9-1.8,7.9h8.45a57.24,57.24,0,0,1-1.48-10.8C6363.64,1976.56,6361.34,1977.55,6360.7,1978.76Z" transform="translate(-6305.28 -1935.77)"/><path class="cls-15" d="M6380.37,1978.77a34.75,34.75,0,0,1,1.79,7.9h-8.45a57.24,57.24,0,0,0,1.5-10.8C6377.43,1976.57,6379.74,1977.57,6380.37,1978.77Z" transform="translate(-6305.28 -1935.77)"/><path class="cls-16" d="M6364.95,1967.92s0.87,2.93,1.81,3.43h0.76l0.94-1.33,2.07-.57v4.45h-2.68l-2.68-2.41Z" transform="translate(-6305.28 -1935.77)"/><path class="cls-16" d="M6376.13,1967.93s-0.87,2.93-1.82,3.43h-0.76l-0.94-1.34-2.07-.58v4.45h2.68l2.68-2.41Z" transform="translate(-6305.28 -1935.77)"/><path class="cls-3" d="M6371.5,1970.91a0.91,0.91,0,0,0-1-.63,1,1,0,0,0-1,.63h1.94Z" transform="translate(-6305.28 -1935.77)"/><path class="cls-16" d="M6364.6,1963.28a2.61,2.61,0,0,1,1.3.76c-0.09-1-.29-4.49,1-5.35s1.85,0,3.68,0v-2.52h-3c-0.78,0-3.24.37-3.24,2.69A39.38,39.38,0,0,0,6364.6,1963.28Z" transform="translate(-6305.28 -1935.77)"/><path class="cls-16" d="M6376.5,1963.28a2.61,2.61,0,0,0-1.3.76c0.09-1,.29-4.49-1-5.35s-1.85,0-3.68,0v-2.52h3c0.78,0,3.24.37,3.23,2.7A39.38,39.38,0,0,1,6376.5,1963.28Z" transform="translate(-6305.28 -1935.77)"/></g><path class="cls-3" d="M6491.52,2038.26a18.67,18.67,0,0,0,0,37.34" transform="translate(-6305.28 -1935.77)"/><g class="cls-17"><path class="cls-18" d="M6487.85,2063.47h6.5s3.34-3.29,3.21-7.57-4.21-6.9-7.87-6.9S6483.33,2058,6487.85,2063.47Z" transform="translate(-6305.28 -1935.77)"/><path class="cls-19" d="M6500.2,2068.16c-1.2-2.28-8.94-3.71-8.94-3.71s-7.74,1.43-8.94,3.71c-0.89,3.16-1.63,7.18-1.63,7.18h21.15A35.14,35.14,0,0,0,6500.2,2068.16Z" transform="translate(-6305.28 -1935.77)"/><path class="cls-20" d="M6491.26,2064.45s7.74,1.43,8.94,3.71a35.14,35.14,0,0,1,1.63,7.18h-10.57v-10.89Z" transform="translate(-6305.28 -1935.77)"/><rect class="cls-19" x="183.87" y="124.05" width="4.21" height="7.05"/><rect class="cls-20" x="185.98" y="124.05" width="2.11" height="7.05"/><path class="cls-21" d="M6489.16,2063.09c0.38,1.09,1.91,1.71,3,1.71a3.78,3.78,0,0,0,1.18-.19v-4.78h-4.21v3.27Z" transform="translate(-6305.28 -1935.77)"/><path class="cls-19" d="M6496.68,2055.37c0-4.4-2.42-6.91-5.42-6.91s-5.42,2.5-5.42,6.91,2.42,8,5.42,8S6496.68,2059.77,6496.68,2055.37Z" transform="translate(-6305.28 -1935.77)"/><path class="cls-20" d="M6495.85,2058.42a2.07,2.07,0,0,1-1.48-2.51,2.16,2.16,0,0,1,2.08-2.12,2.07,2.07,0,0,1,1.48,2.51A2.16,2.16,0,0,1,6495.85,2058.42Z" transform="translate(-6305.28 -1935.77)"/><path class="cls-19" d="M6484.63,2056.31a2.07,2.07,0,0,1,1.48-2.51,2.16,2.16,0,0,1,2.08,2.12,2.07,2.07,0,0,1-1.48,2.51A2.16,2.16,0,0,1,6484.63,2056.31Z" transform="translate(-6305.28 -1935.77)"/><path class="cls-20" d="M6496.68,2055.37c0-4.4-2.42-6.91-5.42-6.91v14.88C6494.25,2063.34,6496.68,2059.77,6496.68,2055.37Z" transform="translate(-6305.28 -1935.77)"/><path class="cls-7" d="M6500.2,2068.16a2,2,0,0,0-.28-0.4c-1.31,1.73-4.69,3-8.66,3h0c-4,0-7.34-1.23-8.66-3a2,2,0,0,0-.28.4c-0.89,3.16-1.63,7.18-1.63,7.18h21.15A35.14,35.14,0,0,0,6500.2,2068.16Z" transform="translate(-6305.28 -1935.77)"/><path class="cls-22" d="M6489,2050.69c0.9,1.62,3.15,2.55,4.78,3.77,2.85,2.13,1.56,6.85.57,9,3.58-2.08,6.2-5.57,4.88-11.22s-5.81-8.06-10.45-6.05c-3.82-1-7.75,4.8-7.29,10.05s6.36,7.22,6.36,7.22S6484.32,2055.65,6489,2050.69Z" transform="translate(-6305.28 -1935.77)"/></g><path class="cls-23" d="M6360.79,1951.34c0,2.77-5,8.7-5,8.7s-5-5.93-5-8.7A5,5,0,1,1,6360.79,1951.34Z" transform="translate(-6305.28 -1935.77)"/><circle class="cls-3" cx="50.49" cy="15.47" r="3.13"/><path class="cls-23" d="M6513.53,2044c0,2.77-5,8.7-5,8.7s-5-5.93-5-8.7A5,5,0,0,1,6513.53,2044Z" transform="translate(-6305.28 -1935.77)"/><circle class="cls-3" cx="203.24" cy="108.16" r="3.13"/></g></g></svg>