<svg id="Layer_1" data-name="Layer 1" xmlns="http://www.w3.org/2000/svg" xmlns:xlink="http://www.w3.org/1999/xlink" viewBox="0 0 225 168"><defs><style>.cls-1,.cls-22,.cls-23{fill:none;}.cls-2{fill:#f1f2f2;opacity:0.7;}.cls-3{fill:url(#linear-gradient);}.cls-4{fill:url(#linear-gradient-2);}.cls-5{clip-path:url(#clip-path);}.cls-6{fill:#fff;}.cls-7{fill:url(#linear-gradient-3);}.cls-8{fill:url(#linear-gradient-4);}.cls-9{fill:url(#linear-gradient-5);}.cls-10{fill:url(#linear-gradient-6);}.cls-11{fill:url(#linear-gradient-7);}.cls-12{fill:#8fc4d7;}.cls-13{opacity:0.5;}.cls-14{fill:url(#linear-gradient-8);}.cls-15{fill:url(#linear-gradient-9);}.cls-16{fill:url(#linear-gradient-10);}.cls-17{fill:url(#linear-gradient-11);}.cls-18{fill:url(#linear-gradient-12);}.cls-19{fill:url(#linear-gradient-13);}.cls-20{fill:#ff9a4e;}.cls-21{fill:url(#linear-gradient-14);}.cls-22,.cls-23{stroke:#f1f2f2;stroke-miterlimit:10;opacity:0.3;}.cls-23{stroke-width:1.26px;}</style><linearGradient id="linear-gradient" x1="6753.68" y1="2020.2" x2="6793.3" y2="2020.2" gradientUnits="userSpaceOnUse"><stop offset="0" stop-color="#bd82e0"/><stop offset="0.86" stop-color="#bd82e0"/><stop offset="1" stop-color="#bd82e0"/></linearGradient><linearGradient id="linear-gradient-2" x1="6753.68" y1="2020.2" x2="6773.53" y2="2020.2" gradientUnits="userSpaceOnUse"><stop offset="0" stop-color="#a16bb5"/><stop offset="0.98" stop-color="#a16bb5"/></linearGradient><clipPath id="clip-path" transform="translate(-6670.16 -1921.68)"><circle class="cls-1" cx="6768.44" cy="2005.68" r="84.49"/></clipPath><linearGradient id="linear-gradient-3" x1="62.83" y1="130.49" x2="76.48" y2="130.49" gradientUnits="userSpaceOnUse"><stop offset="0" stop-color="#00dca0"/><stop offset="0.54" stop-color="#38d1ab"/><stop offset="1" stop-color="#64c8b4"/></linearGradient><linearGradient id="linear-gradient-4" x1="0" y1="130.49" x2="73.93" y2="130.49" xlink:href="#linear-gradient-3"/><linearGradient id="linear-gradient-5" x1="71.78" y1="130.49" x2="73.93" y2="130.49" xlink:href="#linear-gradient-3"/><linearGradient id="linear-gradient-6" x1="73.93" y1="137.2" x2="76.48" y2="137.2" xlink:href="#linear-gradient-3"/><linearGradient id="linear-gradient-7" x1="36.78" y1="165.91" x2="34.1" y2="80.75" xlink:href="#linear-gradient-3"/><linearGradient id="linear-gradient-8" x1="6800.22" y1="2005.68" x2="6808.5" y2="2005.68" gradientUnits="userSpaceOnUse"><stop offset="0" stop-color="#ff9a4e"/><stop offset="0.99" stop-color="#ff704e"/></linearGradient><linearGradient id="linear-gradient-9" x1="6830.11" y1="2037.97" x2="6847.7" y2="2037.97" xlink:href="#linear-gradient-8"/><linearGradient id="linear-gradient-10" x1="6851.56" y1="2077.65" x2="6863.24" y2="2077.65" xlink:href="#linear-gradient-8"/><linearGradient id="linear-gradient-11" x1="6888.41" y1="2022.41" x2="6895.17" y2="2022.41" xlink:href="#linear-gradient-8"/><linearGradient id="linear-gradient-12" x1="6878.99" y1="1977.27" x2="6890.05" y2="1977.27" xlink:href="#linear-gradient-8"/><linearGradient id="linear-gradient-13" x1="6795.12" y1="2058.09" x2="6808.18" y2="2058.09" xlink:href="#linear-gradient-8"/><linearGradient id="linear-gradient-14" x1="6730.95" y1="2001.79" x2="6739.23" y2="2001.79" xlink:href="#linear-gradient-8"/></defs><title>3</title><circle class="cls-2" cx="96.84" cy="84" r="84"/><path class="cls-3" d="M6753.68,2025.55c0,10.13,6.52,22.1,19.81,22.21,13.28-.11,19.8-12.09,19.81-22.21,0-14.28-21-32.48-19.81-32.92C6774.64,1993.07,6753.68,2011.27,6753.68,2025.55Z" transform="translate(-6670.16 -1921.68)"/><path class="cls-4" d="M6773.49,1992.63c1.16,0.43-19.81,18.64-19.81,32.92,0,10.13,6.52,22.1,19.81,22.21" transform="translate(-6670.16 -1921.68)"/><g class="cls-5"><path class="cls-6" d="M6674.68,2056.32h83.5a5.87,5.87,0,0,0,5.87-5.87v-4.24c0-3.24,1.48-5.87-1.76-5.87h-87.61v16Z" transform="translate(-6670.16 -1921.68)"/><rect class="cls-7" x="62.83" y="117.1" width="13.65" height="26.79"/><rect class="cls-8" y="116.09" width="73.93" height="28.81"/><rect class="cls-9" x="71.78" y="116.09" width="2.15" height="28.81"/><rect class="cls-10" x="73.93" y="130.51" width="2.55" height="13.38"/><rect class="cls-11" y="130.51" width="71.78" height="14.39"/><circle class="cls-12" cx="67.58" cy="140.44" r="1.37"/><path class="cls-6" d="M6756.66,2039.11l16.44-.25a4.83,4.83,0,0,0,4.69-5l0-1.61c0-.07,0-0.14,0-0.2l-18.57.65Z" transform="translate(-6670.16 -1921.68)"/><path class="cls-6" d="M6760,2049.6l2.34-10.23c0.79-.83,5.13-5.82,5.25-6.88l-8.47.25-11.1,11.76Z" transform="translate(-6670.16 -1921.68)"/><path class="cls-6" d="M6803.15,2034.36l-11.21,11.21h0l-1.05,1.05-26.81,0a3.45,3.45,0,1,1,0-6.91h23.85l6.68-6.68a5.1,5.1,0,0,1,7.21,0l1.2,1.2Z" transform="translate(-6670.16 -1921.68)"/><polygon class="cls-6" points="91.97 117.97 99 117.97 107.94 117.97 111.11 117.97 109.96 135.65 98.47 135.65 88.64 132.74 83.65 132.78 83.65 117.97 91.97 117.97"/><path class="cls-6" d="M6765.94,2048.39l23.56,0-3.59,3.59h0l-1.05,1.05-26.82,0a3.45,3.45,0,0,1,0-6.91h4.67A3.46,3.46,0,0,0,6765.94,2048.39Z" transform="translate(-6670.16 -1921.68)"/><polygon class="cls-6" points="91.65 133.31 113.43 133.34 109.84 136.93 109.84 136.94 108.79 137.99 96.31 137.97 91.65 133.31"/><rect class="cls-6" x="82.14" y="122.7" width="21.55" height="15.62" rx="5.94" ry="5.94"/></g><g class="cls-13"><path class="cls-14" d="M6808.5,2005.68c-2.87.7-3.44,1.27-4.14,4.14-0.7-2.87-1.27-3.44-4.14-4.14,2.87-.7,3.44-1.27,4.14-4.14C6805.06,2004.41,6805.63,2005,6808.5,2005.68Z" transform="translate(-6670.16 -1921.68)"/></g><g class="cls-13"><path class="cls-15" d="M6847.7,2038c-7.77.57-8.23,1-8.8,8.8-0.57-7.77-1-8.23-8.8-8.8,7.77-.57,8.23-1,8.8-8.8C6839.47,2036.93,6839.94,2037.4,6847.7,2038Z" transform="translate(-6670.16 -1921.68)"/></g><g class="cls-13"><path class="cls-16" d="M6863.24,2077.65c-4.64.66-5.18,1.2-5.84,5.84-0.66-4.64-1.2-5.18-5.84-5.84,4.64-.66,5.18-1.2,5.84-5.84C6858.06,2076.46,6858.6,2077,6863.24,2077.65Z" transform="translate(-6670.16 -1921.68)"/></g><g class="cls-13"><path class="cls-17" d="M6895.17,2022.41c-2.34.57-2.8,1-3.38,3.38-0.57-2.34-1-2.8-3.38-3.38,2.34-.57,2.8-1,3.38-3.38C6892.36,2021.37,6892.83,2021.83,6895.17,2022.41Z" transform="translate(-6670.16 -1921.68)"/></g><g class="cls-13"><path class="cls-18" d="M6890,1977.27c-4.7.46-5.07,0.83-5.53,5.53-0.46-4.7-.83-5.07-5.53-5.53,4.7-.46,5.07-0.83,5.53-5.53C6885,1976.45,6885.34,1976.82,6890,1977.27Z" transform="translate(-6670.16 -1921.68)"/></g><g class="cls-13"><path class="cls-19" d="M6808.18,2058.09c-5.85.38-6.15,0.69-6.53,6.53-0.38-5.85-.69-6.15-6.53-6.53,5.85-.38,6.15-0.69,6.53-6.53C6802,2057.4,6802.34,2057.71,6808.18,2058.09Z" transform="translate(-6670.16 -1921.68)"/></g><path class="cls-20" d="M6810.86,1958.28c-2.13,1.35-2.43,2-2.22,4.48-1.35-2.13-2-2.43-4.48-2.22,2.13-1.35,2.43-2,2.22-4.48C6807.73,1958.19,6808.35,1958.49,6810.86,1958.28Z" transform="translate(-6670.16 -1921.68)"/><path class="cls-6" d="M6799.17,1969.19l-7,7a3.84,3.84,0,0,0,0,5.44l0.91,0.9,0.12,0.11,6-6Z" transform="translate(-6670.16 -1921.68)"/><polygon class="cls-6" points="109.25 31.66 115.27 40.56 117.8 40.55 124.91 40.53 131.06 40.52 128.22 32.49 109.25 31.66"/><polygon class="cls-6" points="116.27 31.65 109.74 33.08 109.46 45.39 111.99 45.38 119.1 45.37 128.79 45.34 125.22 31.63 116.27 31.65"/><path class="cls-6" d="M6791.51,1965.32l4.25,7.19c0,0.91.23,6.17,0.73,6.85l4.76-4.78,0-12.87Z" transform="translate(-6670.16 -1921.68)"/><path class="cls-6" d="M6773.52,1985.58l0-12.61h0v-1.19l15.08-15.1a2.75,2.75,0,1,1,3.9,3.88L6779.08,1974l0,7.51a4.06,4.06,0,0,1-4,4.07h-1.52Z" transform="translate(-6670.16 -1921.68)"/><path class="cls-6" d="M6785.09,1953.9l-10.28,10.29v1.19h0v4l13.25-13.27a2.75,2.75,0,0,1,3.1-.55l1.71-1.72Z" transform="translate(-6670.16 -1921.68)"/><path class="cls-6" d="M6796.54,1953.32a4.58,4.58,0,0,0-.06.72l0,7.59a4.67,4.67,0,0,0,4.68,4.66l80.16-.18,0-13Z" transform="translate(-6670.16 -1921.68)"/><rect class="cls-6" x="6806.39" y="1950.8" width="74.93" height="19.79" transform="translate(-6674.57 -1906.23) rotate(-0.13)"/><rect class="cls-6" x="6806.39" y="1950.88" width="1.85" height="19.79" transform="translate(-6674.57 -1906.32) rotate(-0.13)"/><polygon class="cls-6" points="109.25 31.66 105.94 34.98 105.94 36.17 105.94 36.17 105.95 40.21 114.5 31.65 109.25 31.66"/><path class="cls-6" d="M6800.5,1964.52a1.48,1.48,0,0,1-1.39,1.57L6781,1967.2a1.48,1.48,0,0,1-1.57-1.39l-0.69-11.17a1.48,1.48,0,0,1,1.39-1.57l18.06-1.11a1.48,1.48,0,0,1,1.57,1.39Z" transform="translate(-6670.16 -1921.68)"/><g class="cls-13"><path class="cls-21" d="M6739.23,2001.79c-2.87.7-3.44,1.27-4.14,4.14-0.7-2.87-1.27-3.44-4.14-4.14,2.87-.7,3.44-1.27,4.14-4.14C6735.8,2000.52,6736.37,2001.09,6739.23,2001.79Z" transform="translate(-6670.16 -1921.68)"/></g><polygon class="cls-6" points="47.28 44.46 47.49 43.09 46.92 41.85 46.54 40.55 45.68 39.51 44.97 38.3 43.75 37.65 42.5 37.15 41.12 36.72 41.17 35.39 41.08 34.01 40.73 32.68 40.4 31.29 39.55 30.14 38.4 29.31 37.38 28.33 36.05 27.84 34.68 27.56 33.3 27.32 31.98 27.38 30.69 27.68 29.56 28.37 28.27 28.82 27.4 29.85 26.69 30.96 25.9 31.9 24.59 31.68 23.18 31.52 21.74 31.71 20.34 32.04 18.97 32.51 17.79 33.33 16.62 34.15 15.53 35.09 14.83 36.35 13.89 37.46 13.46 38.85 13.22 40.33 11.92 39.8 10.59 39.82 9.16 39.84 7.87 40.46 6.62 41.14 5.42 42 4.9 43.38 4.51 44.73 4.26 46.12 4.54 47.5 4.79 48.91 5.69 50.03 6.49 51.26 7.89 51.73 9.19 52.23 10.59 52.45 12 52.45 13.41 52.61 14.82 52.53 16.23 52.57 17.64 52.46 19.05 52.44 20.46 52.57 21.87 52.35 23.28 52.51 24.69 52.51 26.11 52.51 27.52 52.44 28.93 52.63 30.34 52.51 31.75 52.44 33.16 52.65 34.58 52.65 35.99 52.38 37.41 52.56 38.82 52.58 40.24 52.42 40.22 52.34 41.73 52.33 43.12 51.74 44.3 50.83 45.45 49.9 46.27 48.66 46.92 47.34 47.57 45.97 47.28 44.46"/><polygon class="cls-22" points="47.28 44.46 47.49 43.09 46.92 41.85 46.54 40.55 45.68 39.51 44.97 38.3 43.75 37.65 42.5 37.15 41.12 36.72 41.17 35.39 41.08 34.01 40.73 32.68 40.4 31.29 39.55 30.14 38.4 29.31 37.38 28.33 36.05 27.84 34.68 27.56 33.3 27.32 31.98 27.38 30.69 27.68 29.56 28.37 28.27 28.82 27.4 29.85 26.69 30.96 25.9 31.9 24.59 31.68 23.18 31.52 21.74 31.71 20.34 32.04 18.97 32.51 17.79 33.33 16.62 34.15 15.53 35.09 14.83 36.35 13.89 37.46 13.46 38.85 13.22 40.33 11.92 39.8 10.59 39.82 9.16 39.84 7.87 40.46 6.62 41.14 5.42 42 4.9 43.38 4.51 44.73 4.26 46.12 4.54 47.5 4.79 48.91 5.69 50.03 6.49 51.26 7.89 51.73 9.19 52.23 10.59 52.45 12 52.45 13.41 52.61 14.82 52.53 16.23 52.57 17.64 52.46 19.05 52.44 20.46 52.57 21.87 52.35 23.28 52.51 24.69 52.51 26.11 52.51 27.52 52.44 28.93 52.63 30.34 52.51 31.75 52.44 33.16 52.65 34.58 52.65 35.99 52.38 37.41 52.56 38.82 52.58 40.24 52.42 40.22 52.34 41.73 52.33 43.12 51.74 44.3 50.83 45.45 49.9 46.27 48.66 46.92 47.34 47.57 45.97 47.28 44.46"/><polygon class="cls-6" points="72.22 53.69 72.48 51.97 71.77 50.4 71.28 48.76 70.19 47.45 69.31 45.94 67.77 45.11 66.19 44.48 64.45 43.94 64.51 42.26 64.4 40.53 63.96 38.86 63.55 37.1 62.48 35.66 61.02 34.61 59.74 33.37 58.06 32.76 56.34 32.41 54.6 32.1 52.94 32.18 51.31 32.56 49.89 33.43 48.27 33.99 47.17 35.29 46.27 36.68 45.28 37.88 43.64 37.59 41.85 37.39 40.04 37.63 38.27 38.05 36.56 38.65 35.06 39.68 33.59 40.7 32.22 41.89 31.34 43.47 30.15 44.88 29.61 46.62 29.31 48.49 27.67 47.82 25.99 47.85 24.19 47.88 22.56 48.66 20.99 49.51 19.48 50.59 18.82 52.33 18.34 54.03 18.02 55.78 18.37 57.52 18.69 59.3 19.82 60.71 20.83 62.26 22.59 62.85 24.24 63.48 25.99 63.76 27.77 63.76 29.54 63.96 31.32 63.86 33.1 63.91 34.87 63.77 36.65 63.74 38.43 63.91 40.2 63.63 41.98 63.83 43.76 63.83 45.54 63.84 47.32 63.74 49.09 63.98 50.88 63.84 52.65 63.75 54.43 64.01 56.21 64.01 57.99 63.67 59.78 63.9 61.56 63.93 63.34 63.73 63.32 63.63 65.23 63.61 66.97 62.87 68.45 61.72 69.91 60.54 70.94 58.99 71.76 57.32 72.58 55.6 72.22 53.69"/><polygon class="cls-23" points="72.22 53.69 72.48 51.97 71.77 50.4 71.28 48.76 70.19 47.45 69.31 45.94 67.77 45.11 66.19 44.48 64.45 43.94 64.51 42.26 64.4 40.53 63.96 38.86 63.55 37.1 62.48 35.66 61.02 34.61 59.74 33.37 58.06 32.76 56.34 32.41 54.6 32.1 52.94 32.18 51.31 32.56 49.89 33.43 48.27 33.99 47.17 35.29 46.27 36.68 45.28 37.88 43.64 37.59 41.85 37.39 40.04 37.63 38.27 38.05 36.56 38.65 35.06 39.68 33.59 40.7 32.22 41.89 31.34 43.47 30.15 44.88 29.61 46.62 29.31 48.49 27.67 47.82 25.99 47.85 24.19 47.88 22.56 48.66 20.99 49.51 19.48 50.59 18.82 52.33 18.34 54.03 18.02 55.78 18.37 57.52 18.69 59.3 19.82 60.71 20.83 62.26 22.59 62.85 24.24 63.48 25.99 63.76 27.77 63.76 29.54 63.96 31.32 63.86 33.1 63.91 34.87 63.77 36.65 63.74 38.43 63.91 40.2 63.63 41.98 63.83 43.76 63.83 45.54 63.84 47.32 63.74 49.09 63.98 50.88 63.84 52.65 63.75 54.43 64.01 56.21 64.01 57.99 63.67 59.78 63.9 61.56 63.93 63.34 63.73 63.32 63.63 65.23 63.61 66.97 62.87 68.45 61.72 69.91 60.54 70.94 58.99 71.76 57.32 72.58 55.6 72.22 53.69"/></svg>