<svg xmlns="http://www.w3.org/2000/svg" xmlns:xlink="http://www.w3.org/1999/xlink" viewBox="0 0 1282.96 355.31"><defs><style>.cls-1{isolation:isolate;}.cls-2{opacity:0.1;}.cls-2,.cls-7{mix-blend-mode:multiply;}.cls-19,.cls-3,.cls-5,.cls-6{fill-rule:evenodd;}.cls-3{fill:url(#linear-gradient);}.cls-4,.cls-6{opacity:0.05;}.cls-5,.cls-6,.cls-9{fill:#231f20;}.cls-14,.cls-7{opacity:0.02;}.cls-12,.cls-8{opacity:0.3;}.cls-10,.cls-12{fill:none;}.cls-10,.cls-12,.cls-15,.cls-16,.cls-17,.cls-19{stroke:#f1f2f2;stroke-miterlimit:10;}.cls-10{opacity:0.5;}.cls-11,.cls-15,.cls-16,.cls-17,.cls-19{fill:#fff;}.cls-13{opacity:0.6;}.cls-16{stroke-width:0.52px;}.cls-17{stroke-width:0.93px;}.cls-18{fill:#f1f2f2;}</style><linearGradient id="linear-gradient" x1="5458.67" y1="1273.12" x2="7333.13" y2="2004.3" gradientUnits="userSpaceOnUse"><stop offset="0" stop-color="#fff"/><stop offset="1"/></linearGradient></defs><title>bg</title><g class="cls-1"><g id="Layer_1" data-name="Layer 1"><g class="cls-2"><path class="cls-3" d="M7041.72,1512.2l-2.54.06-3.11,1-3.11-.79-3.12.33-3.11-1-3.12.53-3.12,1-3.12-.85-3.12-.25-3.12,1.48-3.12-1.31-3.12,1-3.12-.73-3.12.63-3.12-1.31-3.12-.21-3.13,1.37-3.81-1.07,0.92,3.81,0,3.14-1,3.13,0.39,3.13,0.14,3.13,0.42,3.14,0.84,3.13-1.53,3.13,0.63,3.14,0.92,3.13-0.91,3.14,0.84,3.13-0.52,3.14-0.93,3.13,1.2,3.13-0.84,3.13,0.65,3.14-0.74,3.13,0.25,3.14,0.8,3.13-0.81,3.14-0.13,3.14,1.1,3.14-1,3.14-0.34,3.14-0.32,3.13,0.4,3.14,0.28,3.14,0.59,3.14,0.21,3.14-0.23,3.69-3.62-.44-3.06.79-3.06-1.26-3.06-.44-3.06.79-3.06-.67-3.06.75-3.06.35-3.06.14-3.06-1.17-3.07.5-2.63-.33-0.48-2.65,0.14-3.08-0.57-3.08,1.09-3.08-1.19-3.09-0.23-3.08,0.93-3.09-0.43-3.09,0.55-3.09-0.87-3.09,0.76-3.09-0.87-3.09,0.34-3.09,0-3.09-0.25-3.09,1.16-3.09-1.21-3.09,0.23-3.1,0.22-2.77-2.87-.76L6943,1552l-3.18-.07-3.18.09-3.19.1-3.18-1.09-3.19.18-3.18-.55-3.19.43-3.19,1.19-3.19-.93-3.19.49-3.19.21-3.18-.28-3.19.38-3.19-.56-3.19.74-3.19-1.32-3.28.24-0.23,3.13,0.55,3.05-0.63,3,0.78,3.05,0.39,3.05-0.69,3.05-0.85,3,0.54,3.05,0.43,3.05-0.44,3.05-0.49,3.06,0.49,2.81-2.89.64-3.14-.07-3.14-.11-3.14-.26-3.14-.59-3.14,1.5-3.14,0-3.14-1.73-3.14,1-3.14-.77-3.15-.26-3.19.9v-3l-0.11-2.93-0.46-2.94,0.15-2.44-2.58-1-3.06-.21-3.06-.06-3.06.57-3.06.24-3.06-.6-3.06.21-3.07-.62-2.87,1.1,0.51,2.94,0,3.13-0.44,3.13,0.7,3.13-0.7,3.13V1595l0.33,3.13-0.76,3.14-0.36,2.58-2.68.16-3.22,1.09-3.22-1.15-3.22.44-3.22.2-3.22-1-3.22.7-3.23.63-2.62-1.11-1.4-2.44,1.18-3.08,0.19-3.09-0.11-3.08,0.3-3.09-0.77-3.08-0.87-3.09,0-3.08,0.93-3.08,0.07-3.08,0.47-3.09-0.37-3.08-0.91-3.09-0.27-3.08v-3.09l0.63-3.09,0.69-3.09-0.27-3.09-0.54-3.09-0.29-3.08,0.72-3.09-0.74-3.09-0.24-3.09v-3.09l1.27-3.37-3.38,1.23-3.1-.67-3.1.15-3.1-.69-3.1.52-3.1.27-3.1-.46-3.1.39-3.1-.38-3.1-.36-3.1.61-3.1-.2-3.1-.13-3.1.56-3.1-1.27-3.1,1.2-3.1-.86-3.1,1.23-3.1-1-3.1-.69-3.1,1-3.1-.44-3.1-.66-3.1,1.71-3.1-.88-3.1-.49-3.1.69-3.11.62-3.09-.71,0.88,3.17-1.07,3.19,0.67,3.19-1.46,3.18,0.34,3.19,1.42,3.19,0.19,3.19-0.77,3.19-0.47,3.19,0.77,3.19-0.1,3.19-0.29,3.19-0.26,3.19,0.68,3.19-1.33,3.19,1.6,3.19-0.81,3.19,0.62,3.19,0.22,3.2-1,3-3.06.47-3.23,0-3.24.32-3.23-.44-3.23.33-3.24-1.39-3.24.45-3.23,0-3.24.19-3.24.29-3.24-.49-3.24-.25-2.7,1.3,0.34,2.45-0.61,3-1.15,3,1.41,3,0.28,3-1.81,3,0.34,3,1.57,3-0.54,3-1.26,3,1.2,3-0.06,3-0.23,3,0.32,3v3.39l-3.6-1-3.26,1-3.26-.89-3.26,1.05-3.26-.73-3.26,0-3.27-.61-3.19.82,0.69-3-0.68-3.12-1-3.12,1.68-3.12-0.31-3.12-0.92-3.12,1.14-3.12-1.65-3.12,1.89-3.12-1.17-3.12-0.65-3.12,0.56-3.12-0.18-3.12,0.24-3.12,0.36-3.12-0.09-3.12,0.74-3.12-1.47-3.12,0.76-3.12-0.95-3.12,0.14-3.12-0.1-3.12,1.47-3.12-0.48-3.12,0.69-3.12,0.13-3.12-0.64-3.12-0.08-3.12-0.95-3.12,1.63-3.12-1.74-3.12,1.68-3.12-1.37-3.12,0.21-3.12-0.47-3.12,1.63-3.12-1.37-3.12,0.82-3.12,0.68-3.12-1.32-3.12-0.37-3.12,1.42-3.12-0.07-3.12-0.22-3.13-0.19-3.36-3.37-.48-3.14.64-3.14-.5-3.14,1.24-3.14-.58-3.14-.55-3.14.54-3.14.86-3.14-1.38-3.14.84-3.14.27-3.14.2-3.14.1-3.14-.71-3.14-.71-3.14.88-3.15-.68-3.15.35-3.14.54-3.14-1.09-3.15.92-3.15-.15-3.15-.9-3.15.58,0.39,3.14-0.7,3.15-0.17,3.15-0.27,3.14,1.51,3.14-1,3.15-0.14,3.15,0.31,3.15,0.38,3.15-1,3.15,0.32,3.15-0.09,3.15,0.67,3.15-0.81,3.15,0.33,3.15,0,3.15,1,3.15-1.48,3.15,0,3.15,0.84,3.15-0.79,3.15,1.31,3.15-1.29,3.15,0.11,3.15-0.29,3.14-0.08,3.15,0.59,3.15,0.24,3.15-0.18,3.15-0.17,3.15,0.23,3.15,0.94,3.15-1.36,3.15,0.94,3.15-1,3.15,1.41,3.15-0.11,3.15-1.38,3.15-0.23,3.15,1.75,3.16-0.72,3.24-3.3.42-3.22-.95-3.22,1.4-3.22-.66h-3.22l-3.22-.57-3.22.26-3.23-.18-3.52.48,1.13-3.45-0.29-3.15-1.52-3.15,1.29-3.15-1.14-3.15,0.57-3.15,0.8-3.16-0.81-2.9-2.82.44-3.08-.63-3.08-1-3.08.82-3.08.24-3.08-.82-3.09.76-3.24.1,0.54-3.21-0.34-3.06-0.39-3.06,0.25-3.06-0.1-3.07,0.92-3.06-0.45-3.07-0.08-3.07-1-3.07,0.4-3.06-0.3-3.07,0.78-3.07,0.33-3.07-0.13-3.07-0.22-3.18-3.42-.17-3.31.58-3.31-.61-3.31.07-3.32,1.23-3.32-1.9-3.32,1.38v0.18l-3.21-.43-3.2.41-3.2.05-3.2-.36-3.21-1-3.2.36-3.21-.23-3.2.34-3.21.6-3.21.34-3.21-.75-3.21.44-3.21-1-3.2-.23-3.21.73-3.21.55-3.21-.81-3.21.05-3.29.18-0.87,3.22,1.89,3.14-0.35,3.15v3.15l0.06,3.14-1.16,3.15,0.14,3.15,0.71,3.15-1.34,3.15,0.56,2.7-2.86-.28-3.3.27-3.3-.21-3.29-.16-3.3.2-3.3-.18-3.3,1.79-3.3-1.64-3.22.59-0.91-3.05,0.3-3.13,0.32-3.13,0.11-3.14-0.56-3.13-0.21-3.14,1.16-3.13-0.44-3.14,1.13-3.13-1.14-3.13-0.55-3.13,0.92-3.14-0.44-3.13-0.28-3.14,1.18-3.13-0.74-3.14v-3.14l-0.18-3.14,0.2-3.14-0.89-3.14,1.43-3.13,0.15-3.14-1.38-3.14,0.45-3.14-0.13-3.14,0.17-2.9-2.83-.46-3.07-.17-3.08-.08-3.08.16-3.07.53-3.08-.45-3.08.71-3.08-.06-3.07.54-3.07-1.13-3.07.49-3.08.64-3.07-.71-3.08.53-3.08-.6-3.08.5-3.08-1.24-3.08-.46-3.08,1.61-3.08-1.22-3.08.59-3.08,1-3.08-.06h-3.08l-3.09-1.21-2.57.79-0.73,2.62,0.94,3.13-0.75,3.14,0.86,3.13-1.24,3.14,1.25,3.14-0.16,3.14,0.19,3.14-0.63,3.14,0.26,3.14-1,3.14,0.83,3.14-1.23,3.14,0.89,3.14,0.09,3.14,0.86,3.15-1,3.08-2.91-.62-3,.26-3,1.2-3,0-3-.36-3,.15-3-.3-3,.54-3.46-1.27,1.3,3.56-0.65,3.11-0.52,3.11-0.28,3.11,1.57,3.11-0.56,3.11v6.22l-1.27,3.11,0.36,3.11-0.29,3.11,1.15,3.11,0.26,3.11-1.09,3.11,0.94,3.11,0.31,3.11-1.16,3.11,0.61,3.11,0.61,3.11-0.87,3.11,1,3.11-1.84,3.11,1.76,3.11-1.06,3.11-0.62,3.11,0.35,3.11,0.12,3.11,0.34,3.11,0.83,3.11-1.44,3.11-0.13,3.11,0.13,3.11,1.58,3.11L6287,1663l-0.05,3.12,0.31,3.12-0.32,3.12-0.15,3.18-3-1-3,1.79-3-1.68-3,1.34-3,.27-3-.23-3-.34-3,.36-3.64-.87-3.64,1.31-3.7-.92,0.1-3.23,0.52-3.16V1666l0.37-3.16-1.85-3.16,1.76-3.16-0.4-3.16v-3.16l-0.66-3.16,1.11-3.16-1.11-3.16-0.64-3.16,0.12-3.16v-3.16l1-3.16-0.68-3.16,0.7-3.16-0.46-3.16,0.53-3.16-0.4-3.16-0.77-3.16,0.74-3.16,0.09-3.16-0.27-3.16,0.17-3.16,0.52-3.16v-3.16l-0.77-3.16,0.33-3.16-0.23-3.16,1-3.17-0.44-3.17-0.33-3.16-0.35-3.17,0.43-3.17-0.18-3.17,0.26-3.17,0.21-3.53-3.45-.42-3.08,1.28-3.08-.47-3.08-.75-3.08,1.23-3.08-.84-3.08.17-3.08,1.06-3.08-.86-3.08.35-3.08.37-3.08-.13-3.08-.33-3.08-1.24-3.08,1.3h-3.08l-3.08.63-3.08-1.42-3.08.62-3.08.14-3.08-.48-3.09,0-3.09.74-2.5,0,0.11,2.59-0.72,3.16,0.47,3.16,0,3.16-1.31,3.16,0.53,3.17,0.4,3.19-3.19.93-3.17-.39-3.16.07-3.17-.88-3.17-.14-3.17.71-3.17-.27-2.66.46-0.85,2.64-0.48,3.15-0.1,3.16,0.38,3.16,0.79,3.16,0.1,3.16-0.47,3.16-0.57,3.16v3.16l1,3.16-1,3.16,1.24,3.16-1.2,3.16,0.68,3.16-0.31,3.16,0.19,3.16,0.89,3.16-0.84,3.16-0.2,3.16-0.49,3.16,0.78,3.16,0.93,3.16-1.65,3.16,1.17,3.16-1.23,3.16,1.46,3.16-1,3.16,0.35,3.16-0.86,3.16,0.34,3.16-0.54,3.16,1.41,3.16-0.73,3.16-0.28,3.16,0.4,3.16-0.06,3.16-0.43,3.16,0.74,3.16-0.76,3.16-0.16,3.16,1.81,3.16-1.13,3.16,1,3.16v3.17l-0.41,3.58-3.47-1.19-3.07,1.67-3-.63-3.05-.28-3.07.84-3.06-.06-3.06-.6-3.05-1-3.07.62-3.05-1-3.06.06-3.07,1.62-3.06-.56-3.06.39-3.05-1.14-3.07,1.24-3.06-.39-3.06-.85-3.59.88,0.34-3.63-0.1-3.13-0.64-3.13,1.61-3.13-0.33-3.13-0.29-3.13-0.18-3.13,0-3.13,0.22-3.13-0.75-3.13,0.12-3.13,0.1-3.13,1-3.13-1.33-3.13,0.23-3.13,1.51-3.13,0-3.13-1.72-3.13,0.58-3.13,1.06-3.13-0.75-3.13-0.9-3.13,0.26-3.13,0-3.13,0.26-3.13-0.54-3.13,1.52-3.13-1.12-3.13-0.15-3.13,1.14-3.13-1.47-3.13,0.68-3.13-0.63-3.13,0.21-3.13,0.81-3.14,0.17-3.14-0.76-2.76-2.73.37-3.11-1.62-3.11,0h-3.11l-3.11-.05-3.11.6-3.12.76-3.11.45-3.11-.64-3.11-.62-3.11.35-3.11.81-3.12-.79L6051,1603l-3.12-.47-3.11,1.62-3.12-.47-3.11-.63-3.12.42-3.12-1-3.12.37-3.11,1-3.12.24-3.12-.52-3.12-1-3.12.69-3,.19-0.25,2.89,0.65,3.07,0.36,3.07-0.88,3.07,0.93,3.07-1.3,3.07-0.4,3.07,0.93,3.07,0.25,3.07-1.48,3.07,1.92,3.07-0.89,3.07-0.47,3.07,0.14,3.08-0.08,2.67-3,.48-3.37.8-3.08-.53-0.07,2.66-0.59,3,1.14,3-0.87,3,0.58,3-0.27,3-0.84,3,1.15,3.56-3.74-.06-3.22.14-3.22-1.35-3.22-.05-3.23.93-2.63-.81-0.95-2.34,0.71-3-0.21-3,0.14-3,0.25-3-0.74-3,0.48-3.29-3.4.29-3.11.15-3.12-.73-2.94.41-0.16-3,0.41-3.13,0.19-3.13,0.19-3.13-1.68-3.13,1.48-3.13,0.17-3.13-0.8-3.13,0.42-3.13-0.53-3.14,1-3.13-1.77-3.14,1-3.14,0.36-3.14-0.76-3.13,0.08-3.14,0.52-3.14-0.85-3.14-0.11-3.14,0.17-2.67-2.55-.64-3-.31-3,1.07-3-1.44-3,.38-3,.47-3,0-3-1-3,.87-3,1-2.53-.49,0.25,3.16,0.16,3.6-0.47,4-3.39-.51-2.93.32-2.93.65-2.93-1.75-2.93,1.68-2.94-.63-2.85-.22-0.75-3,0.7-3.06,0.9-3.05,0-3.06-1.65-3.05,1.57-3.06-0.74-3.06,0.31-3.06-1-3.06,1.22-3.06-1.57-3.06,0.64-3.06,0.8-3.06-0.12-3.06-1-3.06,0.29-2.84-2.92,0-3.14-1-3.14,1.53L5902,1552l-3.14-.09-3.14.27-3.14-.82-3.14-.31-3.14.55-3.14.17-3.14-.26-3.14-.59h-3.14l-3.14,1.64-3.14-.08-3.14-1.62-3.14.64-3.14.79-3.14-1.53-3.14,1.27-3.15.14-3.15-.94-3.15,1.05-3.5-.94-0.4,3.46v3.11l0.91,3.11,0.83,3.11-0.37,3.11-0.7,3.11,0.72,3.11,0,3.11-1.21,3.11,0.9,3.11-0.32,3.11,0.32,3.11-0.34,3.12-0.07,3-3.07-.68-3.19.35-3.19.78-3.19-1.1-3.19.27-3.19.6-3.19-.47-3.19.94-3.2-1.34-3.25.73,0.54,3.23-0.92,3.17-0.47,3.17,0.22,3.17-0.19,3.18,0.32,2.62-2.74,1.26-3.27.08-3.28-.46-3.28.53-3.28-.87-3.28-.42-3.15.57,0.28,3-1.09,3.12,1.46,3.12-0.64,3.12-0.33,3.12V1633l-0.05,3.12,0.86,3.11,0.37,3.12-1.86,3.12,0.43,3.12,0.67,3.12,0.61,3.12-0.11,3.12-0.41,3.11,0.35,3.11-0.43,3.11-0.5,3.12,0.72,3.12-1.2,3.12,0.51,3.12-0.3,3.12,0.88,3.12-0.89,3.12-0.31,3.12,0.41,3.12,0.84,3.12,0.53,3.12-0.11,3.12-0.93,3.12,0.36,3.12-0.42,3.12-0.76,3.12,0.33,3.12-0.34,3.12,1.76,3.12,0,3.12-1.2,3.12-0.16,3.12-0.18,3.12,0.3,3.12,0.74,3.12-1,3.12,0.25,3.12,1.19,3.12-1.69,3.12,0.53,3.12-0.28,3.12,0.27,3.12,0.14,3.12,1.12,3.12-0.67,3.12,0.15,3.12,0.12,3.12,0.06,3.12,0.25,3.12-1.22,3.12-0.05,3.12-0.39,3.12,0.65,3.12,0.36,3.12-0.67,3.12,0.67,3.12-0.37,3.12-0.5,3.13,1.54,3.13-1.36,3.13,0.06,3.63,3.65-1.21,3.16-.08,3.16-.2,3.16,1.38,3.16-1,3.16-.19,3.16,0.25,3.16,0.68,3.16,0.7,3.16-1,3.16-.28,3.16,1.33,3.16-.54h3.16l3.16,0.6,3.16-1.88,3.16,0.16,3.16,0.3,3.17,0.66,3.17-1.17,3.35,0.94,3.35,0,3.36,0.45,3.36,0.44,3.36-1,3.13-.25,3.13,1.23,3.13-1.67,3.13,1.16,3.13-.87,3.13,0.73,3.13,0.76,3.13-.05,3.13-1.63,3.13,0,3.13,0.91,3.13-.46,3.13,0.79,3.13-1.32,3.13,0.58,3.13-.33,3.13,0.83,3.13-.48,3.13,0,3.13-.61,3.13,1.7,3.13-1.77,3.13,0.06,3.13-.17,3.13,0.9,3.13,1,3.13-1.58,3.13,1.06,3.13-.12,3.13-.57,3.13-.68,3.13,0.54,3.13,0.08,3.13,0.33,3.13-.33,3.13,0.12,3.13-.35,3.13,0.87,3.13-1.28,3.13,1.1,3.13-1,3.13,1.15,3.13-.81,3.13,0.46,3.13-.31,3.13,1,3.13,0.15,3.13-.43,3.13,0.2,3.13-1.51,3.13-.09,3.13,0.53,3.13,0.06,3.13,0.78,3.13-.74,3.13-.47,3.13,1.29,3.13-.2,3.13-.93,3.13,0.4,3.13,0.25,3.13,0.67,3.13-1.18,3.13-.37,3.13,1.81,3.13-1.12H6077l3.13,0.18,3.13-.59,3.13,0.92,3.13,0.33,3.13-1.39,3.13,0.74,3.13,0.91,3.13-1.76,3.13,0.26,3.13,1.3,3.13-1.66,3.13,1.52,3.13-1.59,3.13,1.5,3.13-1.33,3.13,1.13,3.13,0.38,3.13-1.46,3.13,0.74,3.13-.83,3.13,1.31,3.13-.66,3.13-.41,3.13,1,3.13,0,3.13-1.26h3.13l3.13,1,3.12-.63,3.12,0.38,3.12-.82,3.12,0.71,3.12-.82,3.12,1.27,3.12,0.5,3.12-.82,3.12,0.09,3.12-.42,3.12,1,3.12-1.45,3.12,0.5,3.12,0.66,3.12,0.37,3.12-.15,3.12-1,3.12,0.66,3.12,0.3,3.12-1.29,3.13,0.23,3.13,1,3.13-.23,3.13-.07,3.13-1,3.13,1,3.13-1,3.13,0.27,3.13,0.3,3.13-.5,3.13,0.23,3.13,0.7,3.13-.6,3.13-.44,3.13,1.32,3.13-.64,3.13-.67,3.13,0.59,3.13,0.86,3.13-1.55,3.13,0.68,3.13-.26,3.13,0.58,3.13,0.36,3.13-1.33,3.13,1.59,3.13-.32,3.13,0.18,3.13-.31,3.13-.65,3.13,1,3.13,0,3.13-.58,3.13-1,3.13-.14,3.13,0.22,3.13,0.86,3.13-.51,3.13,0.64,3.13,0.69,3.13-1.52,3.13,0,3.13,1.06,3.13-.11,3.13-1.19,3.13,0.42,3.13,0.79,3.13,0.34,3.13-.43,3.13-1.24,3.13,1.63,3.13,0.17,3.13-.14,3.13-1.47,3.13,1.14,3.13-.15,3.13-.73,3.13-.2,3.13,0,3.13,1.36,3.13-1.42,3.13,0.19,3.13,1.38,3.13-.9h3.13l3.13,0.55,3.13-1.21,3.13,1.7,3.13-.67,3.13,0.72,3.13-2,3.13,0.12,3.13,0.19,3.13,0.67,3.13,0.32,3.13-.92,3.13,0.76,3.13,0.2,3.13,0.18,3.13-.7,3.13,1.1,3.13-1.55,3.13,0.71,3.13-.36,3.13-.66L6496,1826l3.13,0.31,3.13,0.48,3.13-1,3.13,0.26,3.13,1.23,3.13-.51,3.13-.06,3.13-1,3.13,0.05,3.13,1.16,3.13,0.33,3.13-1.12,3.13,0.56,3.13-.7,3.13,1.32,3.13-.13,3.13-1,3.13-.37,3.13,1.29,3.13-1,3.13,0.1h3.13l3.13,0.66,3.13-.59,3.13,0.38,3.13-.89,3.13,1.34,3.13-.44,3.13,0.24,3.13-.6,3.13-.9,3.13,1.45,3.13,0,3.13-1.05,3.13,1,3.13-.83,3.13-.37,3.13-.07,3.13,0.3,3.13,1,3.13,0,3.13-1.25,3.13,0.92,3.13,0.54,3.13-.55,3.13-.83,3.13-.09,3.13,1.39,3.13-.47,3.13-.46,3.13-.08,3.13-.14,3.13,0.73,3.13-.4,3.13,0.16,3.13-.23,3.13,0.48,3.13-.09h3.13l3.13-.78,3.13,0.62,3.13-.76,3.13,1.36,3.13-1.56,3.13,0.49,3.13,1.19,3.13-1.6h3.13l3.13,1.63,3.13-.73,3.13,0.43,3.13-1.47,3.13,0.59,3.13-.39,3.13,0.62,3.13-.69,3.13,0,3.13,0.73,3.13,0.46,3.14-1.06h3.13l3.13,1.42,3.13-1.55,3.13,1.35,3.13-1.21,3.13,0.14,3.14,1.19,3.13,0.3,3.14-.16,3.13-.92,3.13,1,3.13-.15,3.13-1.52,3.13,0.19,3.14,0.59,3.13-.21,3.14,0.09,3.13,0.42,3.14,0.73,3.14-.53,3.14,0,3.14-.62,3.14-.62,3.13,1.15,3.14-.82,3.14,0.76,3.14,0.48,3.14,0.21,3.14-1.1,3.21,0.65,3.22-1.45,3.21,1.47,3.22-1.11,3.21,0.1,3.22,1.52,3.22-1.21,3.22,1.11,3.22-.91,3.22-.12,3.21-.78,3.22,0.09,3.22,1.26,3.22,0.54,3.22-.91,3.22,0.73,3.19-1.44,3.18,1.51,3.18-.95,3.18-.49,3.19,1.07,3.18-.25,3.19-.46,3.18-.47,3.19,1.35,3.19-1.57,3.19,1.75,3.19-.45,3.19,0.45,3.18-.18,3.19-.48,3.19-.76,3.19,0.84,3.19,0,3.19-.84,3.13,1.05,3.13-.36h3.13l3.13,0.78,3.13-1.24,3.13,1.17,3.13-1.34,3.13,0,3.13,1.07,3.13,0.34,3.13-.94,3.13-.16,3.13,0.49,3.13-.12,3.13-.91,3.13,1,3.13-.33,3.13,0.84,3.13-.55,3.13-.59,3.13-.41,3.13,1.54,3.13-.9,3.13,0.47,3.13-.32,3.13,0.19,3.13,0.19,3.13-1.24,3.13,0.27,3.14,0.48,3.14,1,3.13-.57,3.14-.49,3.14-.62,3.14,1,3.14-.85,3.52,0.93,0.53-3.51-1.82-3.13,1.5-3.13-1.09-3.13,1.44-3.13-0.75-3.13,0.26-3.13-0.83-3.13,0.93-3.13-1.45-3.13,1.76-3.13-0.25-3.13-1.32-3.13,0.1-3.13,1.56-3.13-0.43-3.13-0.44-3.13-0.81-3.13,0.67-3.13-0.18-3.13,0.75-3.13-0.57-3.13,0.7-3.13-0.49-3.13,0-3.13-0.18-3.13,1-3.13-0.43-3.13-0.13-3.13-0.09-3.13-1-3.13,1.65-3.13-0.08-3.13-0.66-3.13-0.4-3.13,0-3.13,1-3.13,0-3.13-0.25-3.13,0.41-3.13L7066,1698l-0.64-3.13,0.58-3.13-0.82-3.13,0.79-3.13,0.19-3.13-0.31-3.13-0.81-3.13,0.25-3.13,0.72-3.13-1-3.13,0.44-3.13,0.13-3.13-0.42-3.13-0.61-3.13,0.72-3.13,1-3.13-0.94-3.13-0.29-3.13,0.78-3.13-1-3.13,0.37-3.13,0.65-3.13,0.3-3.13,0.28-3.13-0.69-3.13-0.43-3.13,0.84-3.13-1.47-3.13,0.64-3.13,0.94-3.13,0.09-3.13-0.31-3.13-0.76-3.13,0-3.13-0.38-3.13,0.61-3.13,0.48-3.13-1.24-3.13,0.39-3.13-0.28-3.13,0-3.13,1.24-3.13,0.29-3.14-0.4-3.13-1-3.13,0.08-3.13-0.08-3.14,0.44-3.13-0.42-3.13,0.83-3.14-1.06-3.13-0.31-3.14,0.24-3.13,1.71-3.14-0.89-3.13-0.8-3.13,1.5-3.13-0.09-3.14-1.6-3.13,1-3.14,0.47-3.13-0.24-3.14,0.37-3.14-0.77-3.14,0.17-3.14-0.07-3.14-1-3.13,0.84-3.14,0-3.14,1-3.14-0.62-3.14-0.54-2.82-2.93.62-3.24-.59-3.25-.34-3.25.34-3.25-.16-3.25.7-3.59-1.24-0.68,3.45,1.51,3.11-0.78,3.1-0.11,3.1-0.43,3.1,0.33,3.11,1,3.11-0.42,3.1,0.34,3.11-1.58,3.09,1.61,3.12,0.21,3.2Z" transform="translate(-5783.31 -1472.07)"/></g><g class="cls-4"><polygon class="cls-5" points="819.22 323.34 822.73 323.12 825.78 323.53 823.96 320.88 822.31 318.06 820.9 315.11 819.21 312.31 818.46 309 816.32 306.44 815.77 304.83 818.89 304.77 821.66 304.71 820.79 302 819.44 299.2 817.18 296.89 816.52 293.71 814.82 291.1 813.02 288.53 811.93 285.6 810.01 283.1 809.22 279.99 807.33 277.46 805.8 280.18 804.23 282.86 803.09 285.78 801.75 288.59 800.41 291.4 798.62 293.97 796.74 296.48 795.32 299.25 794.02 302.08 792.82 304.81 795.76 305.34 798.82 304.93 797.73 306.12 796.25 309.03 795.19 312.17 793.14 314.78 792.05 317.9 790.61 320.84 789.02 323.13 791.92 323.38 795.09 323.55 793.3 326.12 792.55 329.15 791.05 331.79 789.21 334.24 787.78 336.91 786.71 339.78 785.18 342.21 788.11 342.02 791.22 342.07 794.34 342.47 797.45 342.33 800.56 342.51 803.66 342.33 803.19 345.23 803.55 348.14 803.4 351.06 803.74 353.92 807.24 354.17 810.87 354.07 810.29 351.07 810.86 348.15 811.26 345.23 811.04 342.58 813.93 342.06 817.07 341.96 820.21 341.94 823.35 342.13 826.5 342.01 829.69 342.34 827.86 339.84 826.36 337.21 825.14 334.43 823.81 331.7 822.49 328.97 821.35 326.13 819.22 323.34"/></g><g class="cls-4"><polyline class="cls-5" points="807.57 277.33 808.4 280.41 810.02 283.06 811.38 285.86 812.87 288.6 814.75 291.12 816.42 293.74 818 296.42 818.66 299.59 820.77 301.99 822.14 304.98 818.89 304.68 815.71 304.71 816.24 306.47 818.45 308.99 819.5 312.13 820.98 315.05 822.6 317.89 824.52 320.57 825.89 323.8 822.73 323.61 819.37 323.41 820.96 326.32 822.06 329.16 823.76 331.69 825.43 334.23 827.17 336.74 828.24 339.61 829.93 342.48 826.51 342.07 823.37 342.13 820.23 342.23 817.09 342.68 813.94 342.14 810.49 341.98 810.57 345.21 810.45 348.13 811.2 351.05 810.79 353.97 807.33 354.45"/></g><g class="cls-4"><path class="cls-5" d="M6465.79,1791h-27.54c-7.3,0-13.22,6.4-13.22,14.29h-3.41a7.11,7.11,0,0,0-6.82,7.37V1820h5.29a5.31,5.31,0,1,0,10.58,0h19.25a5.3,5.3,0,1,0,10.58,0h5.29v-29Zm-27.54,14.29H6426.1c0-7.25,5.44-13.13,12.15-13.13v13.13Zm1.07-13.13h12.16v13.13h-12.16v-13.13Zm25.4,13.13h-12.16v-13.13h12.16v13.13Z" transform="translate(-5783.31 -1472.07)"/></g><g class="cls-4"><path class="cls-5" d="M6241.91,1786.2l-0.51-2.43,0.59-2.54-0.08-2.54-0.12-2.55-0.28-2.26-3.15-.32,0,2.41-0.19,2.39,0.08,2.39,0.24,2.54-2.23-1.33-1.8-1.67-2.07-1.32-1.83-1.46-1.95,1.44-2,1.55-2.3,1.11-1.88,1.72-2,1.51-2.29,1.13-2,1.51-2,1.48-2,1.49-2.17,1.31-2.42,1.25,0.6,2.68-0.5,2.5v2.51l0.39,2.5,0.07,2.51v2.51l-0.17,2.5v2.51l-0.06,2.51v2.51l0,2.51,0,2.51,0.26,2.32,2.33,0.53,2.53-.43,2.53,0.29,2.53-.46,2.53,0,2.53,0,2.53,0.22,2.53,0,2.53,0.09,2.53-.31,2.53,0.14,2.53-.08,2.53,0.09,2.53,0.15,2.53-.27,2.54,0.55,2.54-.33,2.62,0.11-0.27-2.58v-2.5l0.18-2.51-0.08-2.5-0.07-2.51,0.5-2.51-0.57-2.5,0.58-2.51-0.42-2.51,0-2.51,0.25-2.51-0.19-2.51,0.17-2.58-2.37-1.41-2.29-1.42-2.42-1.2-2.49-1.12Zm-6.76,24-2.24.48-2.4-.59-2.4.08-2.36.14-0.41-2.26,0.4-2.3,0-2.3,0.19-2.3-0.08-2.31-0.28-2.43,2.51-.21,2.4,0.27,2.4-.17,2.52,0.1,0.09,2.43,0.14,2.3-0.4,2.3,0.34,2.3,0.08,2.32Z" transform="translate(-5783.31 -1472.07)"/></g><path class="cls-6" d="M6195.77,1796.66v-9.39h-2.47v7l-5.8-4.28-16.82,11.69v24.05h33.64v-24.05Zm-4.73,17.75H6184V1804.2H6191v10.21Z" transform="translate(-5783.31 -1472.07)"/><g class="cls-7"><g class="cls-8"><polygon class="cls-9" points="458.62 313.86 458.1 311.51 458.56 309.05 458.79 306.59 458.68 304.13 458.46 301.59 455.2 301.86 455.39 304.05 455.21 306.43 455.07 308.82 454.94 310.97 453.33 309.44 451.26 308.13 449.21 306.8 447.24 305.51 447.08 307.81 446.97 310.2 447.3 312.6 447.53 314.99 447.52 317.39 447.5 319.79 446.9 322.19 447.25 324.54 449.59 324.84 452.04 324.55 451.7 326.9 452.32 329.2 451.6 331.51 451.92 333.81 451.86 336.12 452.18 338.63 449.59 338.73 446.95 338.2 447.14 341 447.26 343.56 447.06 346.13 447.25 348.7 447.58 351.27 447.02 354.01 449.72 353.71 452.26 353.81 454.78 354.1 457.31 353.55 459.84 353.91 462.38 354.07 464.91 354.11 467.45 353.89 470.2 354.06 469.96 351.34 469.98 348.84 469.99 346.33 469.96 343.83 470.24 341.32 469.84 338.81 469.75 336.31 470.27 333.81 469.8 331.3 469.67 328.79 470.01 326.28 469.85 323.77 470.28 321.1 468.15 319.9 466.15 318.79 464.05 317.85 462.29 316.37 460.23 315.35 458.62 313.86"/></g></g><line class="cls-10" x1="1281.99" y1="354.31" x2="1.99" y2="354.31"/><polygon class="cls-11" points="746.65 172.71 745.64 169.81 744.99 166.97 744.21 164.08 742.55 161.58 740.22 159.69 737.94 157.84 735.29 156.55 732.37 155.52 732.94 152.67 732.54 149.57 731.91 146.5 730.43 143.74 728.99 140.9 726.5 138.92 724.02 136.99 721.03 136 718.09 134.93 714.96 134.73 712.14 135.57 709.22 135.72 706.35 136.53 703.91 138.24 702.16 140.66 700.46 142.96 698.9 145.65 695.68 144.84 692.6 144.74 689.43 144.61 686.45 145.72 683.57 146.88 680.71 148.16 678.12 149.94 675.79 152.08 673.6 154.43 672.17 157.3 670.91 160.25 670.34 163.19 667.73 162.4 664.79 162 661.75 163.05 658.46 163.23 656.26 165.69 653.66 167.51 651.82 170.13 650.5 173.12 650.65 176.38 651.06 179.51 652.18 182.45 653.95 185.02 656.07 187.31 658.45 189.53 661.55 190.57 664.79 190.04 667.91 190.45 671.02 190.44 674.14 190.57 677.26 190.43 680.37 190.74 683.49 190.56 686.61 190.31 689.72 190.25 692.84 190.78 695.96 190.43 699.08 190.91 702.2 190.7 705.32 190.3 708.44 190.65 711.56 190.05 714.68 190.77 717.8 190.94 720.92 191 724.04 190.04 727.17 190.82 730.29 190.16 730.33 190.6 733.53 189.88 736.74 189 739.35 186.92 741.83 184.75 743.97 182.22 745.21 179.14 746.17 175.99 746.65 172.71"/><polygon class="cls-12" points="746.65 172.71 745.64 169.81 744.99 166.97 744.21 164.08 742.55 161.58 740.22 159.69 737.94 157.84 735.29 156.55 732.37 155.52 732.94 152.67 732.54 149.57 731.91 146.5 730.43 143.74 728.99 140.9 726.5 138.92 724.02 136.99 721.03 136 718.09 134.93 714.96 134.73 712.14 135.57 709.22 135.72 706.35 136.53 703.91 138.24 702.16 140.66 700.46 142.96 698.9 145.65 695.68 144.84 692.6 144.74 689.43 144.61 686.45 145.72 683.57 146.88 680.71 148.16 678.12 149.94 675.79 152.08 673.6 154.43 672.17 157.3 670.91 160.25 670.34 163.19 667.73 162.4 664.79 162 661.75 163.05 658.46 163.23 656.26 165.69 653.66 167.51 651.82 170.13 650.5 173.12 650.65 176.38 651.06 179.51 652.18 182.45 653.95 185.02 656.07 187.31 658.45 189.53 661.55 190.57 664.79 190.04 667.91 190.45 671.02 190.44 674.14 190.57 677.26 190.43 680.37 190.74 683.49 190.56 686.61 190.31 689.72 190.25 692.84 190.78 695.96 190.43 699.08 190.91 702.2 190.7 705.32 190.3 708.44 190.65 711.56 190.05 714.68 190.77 717.8 190.94 720.92 191 724.04 190.04 727.17 190.82 730.29 190.16 730.33 190.6 733.53 189.88 736.74 189 739.35 186.92 741.83 184.75 743.97 182.22 745.21 179.14 746.17 175.99 746.65 172.71"/><polygon class="cls-11" points="76.62 183.72 76.76 180.4 78.56 177.61 80.51 175.07 83.05 173.08 85.81 171.58 86.07 170.02 86.75 166.98 87.73 164.04 89.72 161.65 91.79 159.12 94.93 158.25 98.09 157.36 101.66 157.86 104.94 159.38 107.36 162.01 109.29 164.66 113.37 163.92 116.51 164.38 119.59 165.18 121.87 167.47 124.65 168.96 126.4 171.56 127.82 174.33 128.61 177.03 132.37 176.86 135.22 177.45 138.33 178.03 139.82 180.81 141.4 183.29 142.23 186.22 141.35 189.14 140.43 192.07 137.78 193.66 135.36 195.41 132.37 195.82 129.18 195.7 125.99 196.07 122.79 196.22 119.59 196.36 116.4 195.99 113.2 195.51 110 195.56 106.81 195.75 103.61 196.06 100.42 195.45 97.22 195.85 94.02 195.49 90.81 195.56 87.61 196.11 87.67 195.47 84.66 195.31 81.91 194.04 79.43 192.22 77.89 189.55 76.91 186.7 76.62 183.72"/><polygon class="cls-12" points="76.62 183.72 76.76 180.4 78.56 177.61 80.51 175.07 83.05 173.08 85.81 171.58 86.07 170.02 86.75 166.98 87.73 164.04 89.72 161.65 91.79 159.12 94.93 158.25 98.09 157.36 101.66 157.86 104.94 159.38 107.36 162.01 109.29 164.66 113.37 163.92 116.51 164.38 119.59 165.18 121.87 167.47 124.65 168.96 126.4 171.56 127.82 174.33 128.61 177.03 132.37 176.86 135.22 177.45 138.33 178.03 139.82 180.81 141.4 183.29 142.23 186.22 141.35 189.14 140.43 192.07 137.78 193.66 135.36 195.41 132.37 195.82 129.18 195.7 125.99 196.07 122.79 196.22 119.59 196.36 116.4 195.99 113.2 195.51 110 195.56 106.81 195.75 103.61 196.06 100.42 195.45 97.22 195.85 94.02 195.49 90.81 195.56 87.61 196.11 87.67 195.47 84.66 195.31 81.91 194.04 79.43 192.22 77.89 189.55 76.91 186.7 76.62 183.72"/><g class="cls-4"><polygon class="cls-5" points="157.43 332.46 159.69 332.53 161.94 332.86 160.55 330.66 159.88 328.46 158.82 326.47 157.46 324.64 156.34 322.68 155.28 320.69 154.91 319.61 157.04 319.61 159.19 319.64 158.17 317.73 157.18 315.83 156.19 313.93 154.91 312.18 154.38 310.02 153.03 308.31 152.26 306.3 150.89 304.6 149.9 302.69 149.06 300.92 148.06 302.6 147.09 304.51 146 306.36 145.23 308.39 144.11 310.22 143.16 312.15 142.09 314 140.96 315.83 140.16 317.84 138.72 319.76 141.08 319.6 143.15 319.71 142.84 320.69 141.78 322.68 140.57 324.59 139.57 326.62 138.56 328.64 137.11 330.42 136.38 332.33 138.43 332.84 140.62 332.5 139.66 334.43 138.48 336.17 137.64 338.09 136.51 339.86 135.53 341.71 134.5 343.54 133.67 345.45 135.8 345.16 137.95 345.26 140.09 345.77 142.24 345.64 144.39 345.73 146.37 345.64 146.63 347.47 146.79 349.48 146.89 351.5 146.35 353.75 149 353.3 151.37 353.4 151.59 351.5 151.59 349.49 151.72 347.48 151.27 345.26 153.62 345.58 155.79 345.63 157.95 345.56 160.12 345.26 162.29 345.3 164.45 345.45 163.69 343.51 162.58 341.73 161.82 339.77 160.65 338.02 159.49 336.27 158.28 334.54 157.43 332.46"/></g><g class="cls-4"><g class="cls-13"><path class="cls-5" d="M6984.77,1791.62a2.55,2.55,0,0,1-2.45,2.65h-9.79a2.55,2.55,0,0,1-2.45-2.65c-1.55,2.27.26,5.29,2.45,5.29h-26.16V1826h2.91v-6.53a4.63,4.63,0,0,0,2.91,1V1826h2.91v-6.53a5.43,5.43,0,0,0,2-4.25h11.61V1826h2.91v-10.78h2.91V1826h2.91v-15.79a4.86,4.86,0,0,0,4.31-2.77,5.61,5.61,0,0,0,.59-2.52h0v-8C6984.51,1796.92,6986.32,1793.9,6984.77,1791.62Z" transform="translate(-5783.31 -1472.07)"/></g><g class="cls-8"><path class="cls-5" d="M6946.37,1792.33h6.18V1793h3.05a1.33,1.33,0,0,0-1.28-1.38h-8a3,3,0,0,0,0,6v-0.7A2.3,2.3,0,0,1,6946.37,1792.33Z" transform="translate(-5783.31 -1472.07)"/></g></g><g class="cls-4"><polygon class="cls-5" points="195.29 329.17 195 331.3 194.48 333.4 193.24 335.19 192 337.08 189.89 337.87 187.96 339.06 185.7 338.78 183.54 338.62 181.45 338 179.35 337.13 178.02 335.3 176.87 333.42 176.31 331.32 176 329.17 175.95 326.95 176.56 324.77 177.96 323 179.43 321.31 181.36 320.15 183.46 319.38 185.7 319 187.88 319.61 190.09 320.06 192.05 321.21 193.4 323.04 194.63 324.87 195.41 326.95 195.29 329.17"/></g><g class="cls-4"><polygon class="cls-5" points="186.1 353.21 184.31 353.46 184.72 351 184.27 348.61 184.67 346.21 184.45 343.82 184.19 341.42 184.21 338.88 186.44 338.93 186.58 341.42 186.32 343.81 186.29 346.2 186.12 348.6 186.2 350.99 186.1 353.21"/></g><g class="cls-14"><polygon class="cls-5" points="579.3 338.81 578.77 340.63 578.1 342.38 576.6 343.52 574.99 344.38 573.18 344.96 571.4 344.29 569.65 343.67 568.53 342.19 567.59 340.63 567.22 338.81 567.37 336.92 568.64 335.51 569.87 334.25 571.41 333.36 573.18 332.68 574.98 333.28 576.64 334.06 578 335.31 579.03 336.91 579.3 338.81"/></g><g class="cls-14"><polygon class="cls-5" points="573.6 353.37 572.55 353.24 572.16 351.62 572.38 349.9 572.16 348.18 572.25 346.45 572.24 344.62 573.34 344.86 573.39 346.44 573.58 348.17 573.78 349.89 573.47 351.62 573.6 353.37"/></g><g class="cls-14"><polygon class="cls-5" points="559.72 333.9 559.57 335.66 558.96 337.31 558.03 338.81 556.63 339.86 555.23 340.88 553.69 341.87 551.87 341.75 550.07 341.79 548.43 341.05 547.05 339.94 545.59 338.91 544.8 337.31 544.45 335.6 544.21 333.9 544.22 332.15 544.79 330.49 545.79 329.05 546.76 327.49 548.42 326.74 550.11 326.18 551.87 326.14 553.63 326.2 555.26 326.86 556.65 327.91 557.97 329.04 559.01 330.46 559.66 332.12 559.72 333.9"/></g><g class="cls-14"><polygon class="cls-5" points="552.44 353.4 551.03 353.17 550.9 351.42 550.78 349.5 550.84 347.58 550.94 345.66 550.74 343.73 550.64 341.66 552.21 341.94 552.19 343.73 552.23 345.65 552.65 347.57 552.15 349.49 552.12 351.42 552.44 353.4"/></g><path class="cls-15" d="M6956.72,1543.69c0.11,9.76-8.87,17.78-20,17.9a23,23,0,0,1-5.31-.56c-1.2-.27-10.12,5.23-8.9,3.07s3.2-5.18,2.18-5.82c-5-3.16-8.34-8.31-8.4-14.15-0.11-9.76,8.87-17.78,20-17.9S6956.61,1533.93,6956.72,1543.69Z" transform="translate(-5783.31 -1472.07)"/><path class="cls-15" d="M6510.9,1770.66c0.11,9.76-8.87,17.78-20,17.9a23,23,0,0,1-5.31-.56c-1.2-.27-10.12,5.23-8.9,3.07s3.2-5.18,2.18-5.82c-5-3.16-8.34-8.31-8.4-14.15-0.11-9.76,8.87-17.78,20-17.9S6510.8,1760.89,6510.9,1770.66Z" transform="translate(-5783.31 -1472.07)"/><path class="cls-16" d="M6145.76,1786.39c-0.06,5.12,4.65,9.33,10.52,9.39a12.09,12.09,0,0,0,2.79-.29c0.63-.14,5.31,2.74,4.67,1.61s-1.68-2.72-1.15-3.05a9,9,0,0,0,4.41-7.42c0.06-5.12-4.65-9.33-10.52-9.39S6145.81,1781.26,6145.76,1786.39Z" transform="translate(-5783.31 -1472.07)"/><path class="cls-17" d="M7022.87,1767.9c0.1,9-8.22,16.48-18.58,16.59a21.36,21.36,0,0,1-4.92-.51c-1.11-.25-9.38,4.84-8.25,2.84s3-4.8,2-5.39a15.81,15.81,0,0,1-7.79-13.12c-0.1-9,8.22-16.48,18.58-16.59S7022.77,1758.85,7022.87,1767.9Z" transform="translate(-5783.31 -1472.07)"/><path class="cls-18" d="M6942.06,1551.8a0.47,0.47,0,0,1-.45-0.36l-3-13a2.5,2.5,0,0,0-1.18-1.57,2.13,2.13,0,0,0-1.9.47c-1.72,1.16-1.15,2.51-.1,4.44a8.3,8.3,0,0,1,.77,1.67c0.31,1.16.37,2.65-.4,3.34a1.51,1.51,0,0,1-1.67.18,0.47,0.47,0,0,1,.34-0.87,0.67,0.67,0,0,0,.71,0,2.76,2.76,0,0,0,.12-2.4,7.74,7.74,0,0,0-.69-1.47c-0.91-1.66-2.16-3.94.4-5.66a3,3,0,0,1,2.76-.57,3.4,3.4,0,0,1,1.75,2.22l3,13a0.47,0.47,0,0,1-.35.56h-0.1Z" transform="translate(-5783.31 -1472.07)"/><path class="cls-18" d="M6936.72,1552.09l-6.7-.05a0.47,0.47,0,0,1-.46-0.47,0.45,0.45,0,0,1,.47-0.46l6.69,0.05c0.54,0,.62-0.26.62-0.54,0-1.39-2.24-4.05-5.32-4.05h-0.08c-1.68,0-2.8,0-3.34,1.93a0.47,0.47,0,0,1-.9-0.25c0.74-2.61,2.6-2.62,4.24-2.61H6932a6.67,6.67,0,0,1,4.47,1.78,4.9,4.9,0,0,1,1.78,3.2A1.41,1.41,0,0,1,6936.72,1552.09Z" transform="translate(-5783.31 -1472.07)"/><path class="cls-18" d="M6929.93,1552a2.51,2.51,0,1,1,2.51-2.51A2.52,2.52,0,0,1,6929.93,1552Zm0-4.1a1.58,1.58,0,1,0,1.58,1.58A1.58,1.58,0,0,0,6929.93,1547.93Z" transform="translate(-5783.31 -1472.07)"/><path class="cls-18" d="M6944.75,1551.93h-4a0.47,0.47,0,0,1,0-.93h4A0.47,0.47,0,0,1,6944.75,1551.93Z" transform="translate(-5783.31 -1472.07)"/><path class="cls-18" d="M6484.1,1778.21a0.44,0.44,0,0,1-.35-0.17l-1.86-2.38a0.44,0.44,0,0,1,.08-0.62l10.16-7.93a3.63,3.63,0,0,1,2.09-4.24,3.9,3.9,0,0,1,1.51-.3,4.21,4.21,0,0,1,3.6,2.14,0.44,0.44,0,0,1-.25.65l-2.35.73-0.59,1.28,0.91,0.36,2.57-.63a0.44,0.44,0,0,1,.55.42,3.82,3.82,0,0,1-2.36,3.73,3.52,3.52,0,0,1-3.76-.67l-9.66,7.54A0.44,0.44,0,0,1,6484.1,1778.21Zm-1.24-2.75,1.31,1.68,9.61-7.5a0.44,0.44,0,0,1,.59,0,2.69,2.69,0,0,0,3.08.74,2.91,2.91,0,0,0,1.79-2.33l-2.13.52a0.44,0.44,0,0,1-.27,0l-1.47-.59a0.44,0.44,0,0,1-.24-0.6l0.87-1.88a0.44,0.44,0,0,1,.27-0.24l2-.61a3.25,3.25,0,0,0-2.5-1.23,3,3,0,0,0-1.17.23c-1.31.54-1.86,1.83-1.51,3.52a0.44,0.44,0,0,1-.16.44Z" transform="translate(-5783.31 -1472.07)"/><path class="cls-18" d="M6481.61,1773.18a0.44,0.44,0,0,1-.27-0.79l8.26-6.46a0.44,0.44,0,1,1,.55.7l-8.26,6.46A0.44,0.44,0,0,1,6481.61,1773.18Z" transform="translate(-5783.31 -1472.07)"/><path class="cls-19" d="M7000.19,1774.4c3.44-1.26,7.49-1.35,10.62.72" transform="translate(-5783.31 -1472.07)"/><path class="cls-19" d="M6998.47,1762.38c1.78,3.2,2.49,7.19.93,10.61" transform="translate(-5783.31 -1472.07)"/><path class="cls-19" d="M7000.16,1773.76c-3.41-3.36,5-7.61,10-10.11C7010.16,1763.65,7003.57,1777.13,7000.16,1773.76Z" transform="translate(-5783.31 -1472.07)"/></g></g></svg>