<svg xmlns="http://www.w3.org/2000/svg" xmlns:xlink="http://www.w3.org/1999/xlink" viewBox="0 0 110 110"><defs><style>.cls-1{isolation:isolate;}.cls-2{fill:url(#linear-gradient);}.cls-3{opacity:0.2;fill:url(#linear-gradient-2);}.cls-3,.cls-4{mix-blend-mode:multiply;}.cls-4{opacity:0.05;}.cls-5{fill:#004c3d;}.cls-6{fill:#fff;}</style><linearGradient id="linear-gradient" x1="-3.74" y1="11.63" x2="242.87" y2="193.72" gradientUnits="userSpaceOnUse"><stop offset="0" stop-color="#00dca0"/><stop offset="0.54" stop-color="#38d1ab"/><stop offset="1" stop-color="#64c8b4"/></linearGradient><linearGradient id="linear-gradient-2" x1="5982.52" y1="1295.64" x2="6051.59" y2="1310.95" gradientUnits="userSpaceOnUse"><stop offset="0"/><stop offset="0.16" stop-color="#4f4e4e"/><stop offset="0.29" stop-color="#868485"/><stop offset="0.35" stop-color="#9b999a"/><stop offset="0.47" stop-color="#b9b7b8"/><stop offset="0.61" stop-color="#d7d6d7"/><stop offset="0.75" stop-color="#ededed"/><stop offset="0.88" stop-color="#fafafa"/><stop offset="1" stop-color="#fff"/></linearGradient></defs><title>logo</title><g class="cls-1"><g id="Layer_1" data-name="Layer 1"><rect class="cls-2" width="110" height="110"/><path class="cls-3" d="M6020.68,1274l29,14.32v35.82s-1.28,10.95-10.38,10.95h-14.65l-31.36-16.26,6.11-21.8,11.71,4.86-5.49-7.56-8.09-3.19-1.57-13.67v-7.94Z" transform="translate(-5955.3 -1239.09)"/><g class="cls-4"><path class="cls-5" d="M6025.26,1278.49c-2.6-4.25-8.26-6.87-16.84-7.78a67.14,67.14,0,0,0-11.46-.19l-2.71.23,0.19,2.71a111.31,111.31,0,0,0,2.42,16.19v0s0.72,3.57,3.53,2.51,1.37-5.65,1.12-6.9a0.23,0.23,0,0,1,0-.16c-0.66-3.48-1.08-6.88-1.32-9.16a61.72,61.72,0,0,1,7.71.31c6.54,0.71,11,2.54,12.63,5.16a10.43,10.43,0,0,1,1.61,4.84c1.14,10.8-7.24,11.49-7.24,11.49h0l-0.35,0a2.41,2.41,0,0,1-2.41-2.42h0a2.41,2.41,0,0,1,2.86-2.37h0c0.39,0,.71.08,1,0.12,0.8,0,1.82-.37,2.31-2.35a2.26,2.26,0,0,0-1.27-2.95,7.94,7.94,0,0,0-1.11-.28h0a7.93,7.93,0,0,0-7,2.2h0a7.88,7.88,0,0,0-2.32,5.63h0a7.88,7.88,0,0,0,2.32,5.63h0a7.88,7.88,0,0,0,5.6,2.32s12.79,0.4,13.11-15.37h0A15.59,15.59,0,0,0,6025.26,1278.49Z" transform="translate(-5955.3 -1239.09)"/><path class="cls-5" d="M6027.67,1304.27s0-.1,0-0.14h0c0-1.44-2.14-1.27-3.63-.39l-0.3.21a9.7,9.7,0,0,0-2.24,3.34l-0.18.44h0a13.08,13.08,0,0,1-.78,1.47c-1.6,2.62-6.09,4.45-12.63,5.16a61.7,61.7,0,0,1-7.74.31c0.22-2.38.63-6,1.34-9.6a0.28,0.28,0,0,1,0-.14c0.25-1.26,1.7-5.84-1.12-6.9-2.28-.86-3.18,1.32-3.44,2.18a98.6,98.6,0,0,0-2.52,16.95l-0.14,2.68L5997,1320c0.13,0,1.94.16,4.59,0.16a65.61,65.61,0,0,0,6.86-.35c8.58-.91,14.24-3.53,16.84-7.78a15.44,15.44,0,0,0,2.41-7.57A1.65,1.65,0,0,1,6027.67,1304.27Z" transform="translate(-5955.3 -1239.09)"/></g><path class="cls-6" d="M6024.26,1277.49c-2.6-4.25-8.26-6.87-16.84-7.78a67.14,67.14,0,0,0-11.46-.19l-2.71.23,0.19,2.71a111.31,111.31,0,0,0,2.42,16.19v0s0.72,3.57,3.53,2.51,1.37-5.65,1.12-6.9a0.23,0.23,0,0,1,0-.16c-0.66-3.48-1.08-6.88-1.32-9.16a61.72,61.72,0,0,1,7.71.31c6.54,0.71,11,2.54,12.63,5.16a10.43,10.43,0,0,1,1.61,4.84c1.14,10.8-7.24,11.49-7.24,11.49h0l-0.35,0a2.41,2.41,0,0,1-2.41-2.42h0a2.41,2.41,0,0,1,2.86-2.37h0c0.39,0,.71.08,1,0.12,0.8,0,1.82-.37,2.31-2.35a2.26,2.26,0,0,0-1.27-2.95,7.94,7.94,0,0,0-1.11-.28h0a7.93,7.93,0,0,0-7,2.2h0a7.88,7.88,0,0,0-2.32,5.63h0a7.88,7.88,0,0,0,2.32,5.63h0a7.88,7.88,0,0,0,5.6,2.32s12.79,0.4,13.11-15.37h0A15.59,15.59,0,0,0,6024.26,1277.49Z" transform="translate(-5955.3 -1239.09)"/><path class="cls-6" d="M6026.67,1303.27s0-.1,0-0.14h0c0-1.44-2.14-1.27-3.63-.39l-0.3.21a9.7,9.7,0,0,0-2.24,3.34l-0.18.44h0a13.08,13.08,0,0,1-.78,1.47c-1.6,2.62-6.09,4.45-12.63,5.16a61.7,61.7,0,0,1-7.74.31c0.22-2.38.63-6,1.34-9.6a0.28,0.28,0,0,1,0-.14c0.25-1.26,1.7-5.84-1.12-6.9-2.28-.86-3.18,1.32-3.44,2.18a98.6,98.6,0,0,0-2.52,16.95l-0.14,2.68L5996,1319c0.13,0,1.94.16,4.59,0.16a65.61,65.61,0,0,0,6.86-.35c8.58-.91,14.24-3.53,16.84-7.78a15.44,15.44,0,0,0,2.41-7.57A1.65,1.65,0,0,1,6026.67,1303.27Z" transform="translate(-5955.3 -1239.09)"/></g></g></svg>